<svg xmlns="http://www.w3.org/2000/svg" viewBox="0 0 256 320" role="img" aria-label="Character placeholder">
  <defs>
    <radialGradient id="a" cx="50%" cy="28%" r="72%">
      <stop offset="0" stop-color="#38bdf8" stop-opacity=".22"/>
      <stop offset=".45" stop-color="#c9a654" stop-opacity=".16"/>
      <stop offset="1" stop-color="#05080c" stop-opacity="0"/>
    </radialGradient>
    <linearGradient id="b" x1="50%" x2="50%" y1="0" y2="1">
      <stop offset="0" stop-color="#d7c27a"/>
      <stop offset="1" stop-color="#6f5a2a"/>
    </linearGradient>
  </defs>
  <path fill="url(#a)" d="M12 20h232v286H12z"/>
  <path fill="#080d12" stroke="url(#b)" stroke-width="5" d="M128 29c32 0 58 27 58 61 0 22-11 42-28 53 30 12 52 44 52 82v50H46v-50c0-38 22-70 52-82-17-11-28-31-28-53 0-34 26-61 58-61Z"/>
  <path fill="#111923" stroke="#38bdf8" stroke-opacity=".45" stroke-width="3" d="M85 92c6-26 21-40 43-40s37 14 43 40l-12 46H97L85 92Z"/>
  <path fill="#0b1016" stroke="#c9a654" stroke-opacity=".75" stroke-width="4" d="M82 160h92l25 62-19 38H76l-19-38 25-62Z"/>
  <path fill="none" stroke="#38bdf8" stroke-linecap="round" stroke-opacity=".65" stroke-width="4" d="M101 108h54M96 186h64M82 225h92"/>
  <circle cx="108" cy="91" r="5" fill="#9ff7d2"/>
  <circle cx="148" cy="91" r="5" fill="#9ff7d2"/>
</svg>
