<svg xmlns="http://www.w3.org/2000/svg" viewBox="0 0 270 360" role="img" aria-label="Desolated lands portal">
  <defs>
    <radialGradient id="sky" cx="50%" cy="35%" r="70%">
      <stop offset="0" stop-color="#7a391e"/>
      <stop offset="0.48" stop-color="#24110d"/>
      <stop offset="1" stop-color="#050609"/>
    </radialGradient>
    <linearGradient id="gold" x1="0" x2="1">
      <stop offset="0" stop-color="#6d4a22"/>
      <stop offset="0.5" stop-color="#f0c26a"/>
      <stop offset="1" stop-color="#6d4a22"/>
    </linearGradient>
  </defs>
  <rect width="270" height="360" fill="#050609"/>
  <path d="M25 336V98C25 48 72 16 135 16s110 32 110 82v238Z" fill="url(#sky)" stroke="url(#gold)" stroke-width="5"/>
  <path d="M37 328V104c0-42 41-73 98-73s98 31 98 73v224Z" fill="none" stroke="#f3b65f" stroke-opacity=".28" stroke-width="2"/>
  <circle cx="134" cy="112" r="42" fill="#f2a65a" opacity=".18"/>
  <path d="M0 287h270v73H0Z" fill="#090605"/>
  <path d="M14 284 54 232l24 31 34-82 24 74 50-126 30 104 39 53Z" fill="#1b0f0a"/>
  <path d="m78 268 22-64 17 54 22-108 19 116 28-38 31 55Z" fill="#3c1d10"/>
  <path d="m88 276 17-34 10 27 17-59 18 66 33-19 20 27Z" fill="#743516" opacity=".9"/>
  <path d="M135 52 116 86h38Z" fill="#e7a84e" opacity=".45"/>
  <path d="m135 46 6 18 18 6-18 6-6 18-6-18-18-6 18-6Z" fill="#ffc96b" opacity=".65"/>
  <path d="M135 20 118 45h34Z" fill="#0b0705" stroke="#f0c26a" stroke-opacity=".7" stroke-width="2"/>
  <path d="M36 318h198M55 334h160" stroke="#f0c26a" stroke-opacity=".32" stroke-width="2"/>
  <path d="M31 118c24-62 70-84 104-84s80 22 104 84" fill="none" stroke="#fff0b8" stroke-opacity=".18" stroke-width="2"/>
</svg>
