<svg xmlns="http://www.w3.org/2000/svg" viewBox="0 0 960 520" role="img" aria-label="Desolated lands background">
  <defs>
    <radialGradient id="sun" cx="58%" cy="38%" r="44%">
      <stop offset="0" stop-color="#e18a43" stop-opacity=".62"/>
      <stop offset=".42" stop-color="#7a3419" stop-opacity=".34"/>
      <stop offset="1" stop-color="#040508" stop-opacity="0"/>
    </radialGradient>
    <linearGradient id="sky" x1="0" x2="0" y1="0" y2="1">
      <stop offset="0" stop-color="#150c0a"/>
      <stop offset=".5" stop-color="#3a160c"/>
      <stop offset="1" stop-color="#060405"/>
    </linearGradient>
  </defs>
  <rect width="960" height="520" fill="url(#sky)"/>
  <rect width="960" height="520" fill="url(#sun)"/>
  <path d="M0 368 92 278l78 52 86-148 72 122 95-218 83 228 91-120 86 128 98-202 96 248v152H0Z" fill="#110907"/>
  <path d="M0 390 118 316l78 36 95-84 75 64 120-144 98 146 88-54 96 80 192-132v292H0Z" fill="#281008"/>
  <path d="M0 430c188-72 338-74 514-18 160 50 275 38 446-34v142H0Z" fill="#080505"/>
  <g stroke="#f0a04f" stroke-opacity=".18" stroke-width="2">
    <path d="M88 418h680"/>
    <path d="M144 384h720"/>
    <path d="M46 456h830"/>
  </g>
  <g fill="#ffca78" opacity=".44">
    <circle cx="128" cy="84" r="1.3"/>
    <circle cx="742" cy="78" r="1.4"/>
    <circle cx="820" cy="146" r="1.1"/>
    <circle cx="246" cy="132" r="1"/>
  </g>
</svg>
