<svg xmlns="http://www.w3.org/2000/svg" viewBox="0 0 960 520" role="img" aria-label="Nebula empire background">
  <defs>
    <radialGradient id="rift" cx="52%" cy="38%" r="48%">
      <stop offset="0" stop-color="#b36cff" stop-opacity=".62"/>
      <stop offset=".22" stop-color="#6f2bd9" stop-opacity=".34"/>
      <stop offset=".58" stop-color="#1c0f36" stop-opacity=".55"/>
      <stop offset="1" stop-color="#03030a" stop-opacity="0"/>
    </radialGradient>
    <linearGradient id="sky" x1="0" x2="0" y1="0" y2="1">
      <stop offset="0" stop-color="#05050d"/>
      <stop offset=".55" stop-color="#180c2d"/>
      <stop offset="1" stop-color="#030307"/>
    </linearGradient>
  </defs>
  <rect width="960" height="520" fill="url(#sky)"/>
  <rect width="960" height="520" fill="url(#rift)"/>
  <path d="M270 180c120-96 256-108 420-12-120-38-222-8-306 76 116-48 236-18 336 92-142-76-268-42-390 74 40-92 92-154 156-190-70 20-140 4-216-40Z" fill="#b375ff" opacity=".18"/>
  <circle cx="522" cy="214" r="78" fill="#9b5cff" opacity=".14"/>
  <circle cx="522" cy="214" r="30" fill="#070411"/>
  <path d="M0 390 106 284l58 70 90-164 88 154 82-216 90 228 90-132 102 138 86-112 168 146v124H0Z" fill="#090716"/>
  <path d="M0 440c164-62 318-80 502-28 190 54 302 34 458-48v156H0Z" fill="#040309"/>
  <g fill="#f0dcff" opacity=".72">
    <circle cx="84" cy="88" r="1.3"/>
    <circle cx="210" cy="58" r="1"/>
    <circle cx="782" cy="86" r="1.4"/>
    <circle cx="846" cy="186" r="1.1"/>
    <circle cx="618" cy="132" r="1.3"/>
  </g>
</svg>
