<svg xmlns="http://www.w3.org/2000/svg" width="128" height="128" viewBox="0 0 128 128" fill="none">
  <defs>
    <radialGradient id="glow" cx="50%" cy="42%" r="52%">
      <stop offset="0%" stop-color="#ff5d72" stop-opacity="0.42"/>
      <stop offset="100%" stop-color="#8f2332" stop-opacity="0"/>
    </radialGradient>
    <linearGradient id="main" x1="32" y1="20" x2="96" y2="108" gradientUnits="userSpaceOnUse">
      <stop stop-color="#ff5d72"/>
      <stop offset="1" stop-color="#8f2332"/>
    </linearGradient>
    <filter id="soft" x="-40%" y="-40%" width="180%" height="180%">
      <feDropShadow dx="0" dy="4" stdDeviation="5" flood-color="#000000" flood-opacity="0.48"/>
      <feDropShadow dx="0" dy="0" stdDeviation="3" flood-color="#ff5d72" flood-opacity="0.18"/>
    </filter>
  </defs>
  <circle cx="64" cy="64" r="55" fill="url(#glow)"/>
  <g filter="url(#soft)" stroke="#15110b" stroke-width="4" stroke-linejoin="round" stroke-linecap="round">
    <path d="M64 32c24 10 36 27 34 51-2 20-16 32-34 32S32 103 30 83c-2-24 10-41 34-51z" fill="url(#main)"/><path d="M45 35l19-16 19 16M48 57h.5M66 54h.5M82 65h.5M55 78h.5M73 87h.5" stroke="#ffe6b0" stroke-width="6"/>
  </g>
</svg>
