<svg xmlns="http://www.w3.org/2000/svg" width="128" height="128" viewBox="0 0 128 128" fill="none">
  <defs>
    <radialGradient id="glow" cx="50%" cy="42%" r="52%">
      <stop offset="0%" stop-color="#efd36c" stop-opacity="0.42"/>
      <stop offset="100%" stop-color="#9f7722" stop-opacity="0"/>
    </radialGradient>
    <linearGradient id="main" x1="32" y1="20" x2="96" y2="108" gradientUnits="userSpaceOnUse">
      <stop stop-color="#efd36c"/>
      <stop offset="1" stop-color="#9f7722"/>
    </linearGradient>
    <filter id="soft" x="-40%" y="-40%" width="180%" height="180%">
      <feDropShadow dx="0" dy="4" stdDeviation="5" flood-color="#000000" flood-opacity="0.48"/>
      <feDropShadow dx="0" dy="0" stdDeviation="3" flood-color="#efd36c" flood-opacity="0.18"/>
    </filter>
  </defs>
  <circle cx="64" cy="64" r="55" fill="url(#glow)"/>
  <g filter="url(#soft)" stroke="#15110b" stroke-width="4" stroke-linejoin="round" stroke-linecap="round">
    <path d="M64 28v74" stroke="url(#main)" stroke-width="9"/><path d="M63 46c-17-12-26-10-34 2 14 9 24 8 34-2zM65 58c18-12 27-10 35 2-14 9-25 8-35-2zM63 70c-17-12-26-10-34 2 14 9 24 8 34-2zM65 82c18-12 27-10 35 2-14 9-25 8-35-2z" fill="url(#main)"/>
  </g>
</svg>
